<svg width="40" height="40" viewBox="0 0 40 40" fill="none" xmlns="http://www.w3.org/2000/svg">
<path d="M32.0608 35.9556C36.884 32.3041 40 26.5159 40 20C40 13.8167 37.194 8.28885 32.786 4.6202C33.8193 6.49511 34.336 8.57807 34.336 10.8691C34.336 13.6739 33.5312 16.2312 31.9215 18.541C30.3521 20.8096 27.9175 22.3564 24.6177 23.1813L32.0608 35.9556Z" fill="#010203"/>
<path d="M5 6.77089C1.88818 10.2966 0 14.9278 0 20C0 25.0722 1.88818 29.7035 5 33.2291V6.77089Z" fill="#010203"/>
<path d="M11.8813 38.2835C14.3623 39.3869 17.1096 40 20 40C22.0013 40 23.9339 39.7061 25.757 39.159L17.1328 23.8H11.8813V38.2835Z" fill="#010203"/>
<path d="M19.4869 18.1698H11.8813V3.75397H19.4869C22.1026 3.75397 24.0543 4.3933 25.3421 5.67195C26.6298 6.90937 27.2736 8.64174 27.2736 10.8691C27.2736 13.0964 26.6097 14.87 25.2817 16.1899C23.994 17.5098 22.0624 18.1698 19.4869 18.1698Z" fill="#010203"/>
<style>@media (prefers-color-scheme: light) { :root { filter: none; } }
@media (prefers-color-scheme: dark) { :root { filter: invert(1); } }
</style>
</svg>
